<?xml version="1.0" encoding="UTF-8"?>
<svg xmlns="http://www.w3.org/2000/svg" xmlns:xlink="http://www.w3.org/1999/xlink" width="35pt" height="35pt" viewBox="0 0 35 35" version="1.1">
<g id="surface1">
<path style=" stroke:none;fill-rule:nonzero;fill:rgb(0%,0%,0%);fill-opacity:1;" d="M 33.542969 23.332031 L 33.542969 2.917969 C 34.417969 2.917969 35 2.332031 35 1.457031 C 35 0.582031 34.417969 0 33.542969 0 L 1.457031 0 C 0.582031 0 0 0.582031 0 1.457031 C 0 2.332031 0.582031 2.917969 1.457031 2.917969 L 1.457031 23.332031 C 0.582031 23.332031 0 23.917969 0 24.792969 C 0 25.667969 0.582031 26.25 1.457031 26.25 L 13.269531 26.25 L 10.355469 32.957031 C 10.0625 33.6875 10.355469 34.5625 11.082031 34.855469 C 11.8125 35.144531 12.6875 34.855469 12.980469 34.125 L 16.332031 26.25 L 18.519531 26.25 L 21.875 34.125 C 22.167969 34.855469 23.042969 35.144531 23.769531 34.855469 C 24.5 34.5625 24.792969 33.6875 24.5 32.957031 L 21.582031 26.25 L 33.542969 26.25 C 34.417969 26.25 35 25.667969 35 24.792969 C 35 23.917969 34.417969 23.332031 33.542969 23.332031 Z M 4.375 2.917969 L 30.625 2.917969 L 30.625 19.6875 L 21.875 10.9375 L 14.582031 18.230469 L 11.667969 15.3125 L 4.375 22.605469 Z M 5.832031 23.332031 L 11.667969 17.5 L 14.582031 20.417969 L 21.875 13.125 L 30.625 21.875 L 30.625 23.332031 Z M 5.832031 23.332031 "/>
<path style=" stroke:none;fill-rule:nonzero;fill:rgb(0%,0%,0%);fill-opacity:1;" d="M 14.582031 11.667969 C 16.1875 11.667969 17.5 10.355469 17.5 8.75 C 17.5 7.144531 16.1875 5.832031 14.582031 5.832031 C 12.980469 5.832031 11.667969 7.144531 11.667969 8.75 C 11.667969 10.355469 12.980469 11.667969 14.582031 11.667969 Z M 14.582031 7.292969 C 15.457031 7.292969 16.042969 7.875 16.042969 8.75 C 16.042969 9.625 15.457031 10.207031 14.582031 10.207031 C 13.707031 10.207031 13.125 9.625 13.125 8.75 C 13.125 7.875 13.707031 7.292969 14.582031 7.292969 Z M 14.582031 7.292969 "/>
</g>
</svg>
