<?xml version="1.0" encoding="UTF-8"?>
<svg xmlns="http://www.w3.org/2000/svg" xmlns:xlink="http://www.w3.org/1999/xlink" width="22pt" height="22pt" viewBox="0 0 22 22" version="1.1">
<g id="surface1">
<path style=" stroke:none;fill-rule:nonzero;fill:rgb(0%,0%,0%);fill-opacity:1;" d="M 4.46875 4.230469 L 7.011719 5.347656 C 6.507812 6.089844 6.246094 6.945312 6.246094 7.84375 C 6.246094 10.296875 8.238281 12.316406 10.714844 12.316406 C 13.191406 12.316406 15.183594 10.320312 15.183594 7.84375 C 15.183594 6.96875 14.921875 6.089844 14.441406 5.367188 L 16.675781 4.316406 L 16.675781 8.566406 L 15.996094 10.015625 C 15.953125 10.125 15.953125 10.234375 16.019531 10.320312 C 16.082031 10.410156 16.191406 10.472656 16.304688 10.472656 L 17.59375 10.472656 C 17.707031 10.472656 17.816406 10.429688 17.859375 10.320312 C 17.925781 10.234375 17.925781 10.125 17.878906 10.015625 L 17.289062 8.566406 L 17.289062 4.03125 C 17.289062 3.855469 17.265625 3.726562 16.960938 3.59375 C 16.894531 3.570312 10.867188 0.898438 10.867188 0.898438 C 10.78125 0.855469 10.691406 0.855469 10.605469 0.898438 L 4.46875 3.617188 C 4.359375 3.660156 4.273438 3.789062 4.273438 3.921875 C 4.273438 4.054688 4.339844 4.164062 4.46875 4.230469 Z M 14.507812 7.84375 C 14.507812 9.949219 12.796875 11.65625 10.691406 11.65625 C 8.589844 11.65625 6.878906 9.949219 6.878906 7.84375 C 6.878906 7.035156 7.144531 6.265625 7.605469 5.609375 L 10.582031 6.945312 C 10.628906 6.96875 10.671875 6.96875 10.714844 6.96875 C 10.757812 6.96875 10.804688 6.96875 10.847656 6.945312 L 13.78125 5.632812 C 14.265625 6.289062 14.507812 7.054688 14.507812 7.84375 Z M 16.808594 9.816406 L 16.960938 9.488281 L 17.089844 9.816406 Z M 10.738281 1.554688 L 16.0625 3.921875 L 10.738281 6.289062 L 5.414062 3.921875 Z M 10.738281 1.554688 "/>
<path style=" stroke:none;fill-rule:nonzero;fill:rgb(0%,0%,0%);fill-opacity:1;" d="M 10.824219 13.105469 C 6.550781 13.105469 3.066406 16.585938 3.066406 20.859375 C 3.066406 21.035156 3.222656 21.1875 3.394531 21.1875 L 18.253906 21.1875 C 18.429688 21.1875 18.582031 21.035156 18.582031 20.859375 C 18.582031 16.585938 15.097656 13.105469 10.824219 13.105469 Z M 3.746094 20.53125 C 3.921875 16.761719 7.035156 13.761719 10.847656 13.761719 C 14.660156 13.761719 17.75 16.785156 17.925781 20.53125 Z M 3.746094 20.53125 "/>
</g>
</svg>
