<?xml version="1.0" encoding="UTF-8"?>
<svg xmlns="http://www.w3.org/2000/svg" xmlns:xlink="http://www.w3.org/1999/xlink" width="35pt" height="35pt" viewBox="0 0 35 35" version="1.1">
<g id="surface1">
<path style=" stroke:none;fill-rule:nonzero;fill:rgb(0%,0%,0%);fill-opacity:1;" d="M 7.113281 6.726562 L 11.15625 8.507812 C 10.355469 9.691406 9.933594 11.050781 9.933594 12.480469 C 9.933594 16.382812 13.109375 19.589844 17.046875 19.589844 C 20.984375 19.589844 24.160156 16.417969 24.160156 12.480469 C 24.160156 11.085938 23.738281 9.691406 22.972656 8.539062 L 26.527344 6.867188 L 26.527344 13.628906 L 25.449219 15.929688 C 25.378906 16.105469 25.378906 16.28125 25.484375 16.417969 C 25.585938 16.558594 25.761719 16.664062 25.9375 16.664062 L 27.992188 16.664062 C 28.167969 16.664062 28.339844 16.59375 28.410156 16.417969 C 28.515625 16.28125 28.515625 16.105469 28.445312 15.929688 L 27.503906 13.628906 L 27.503906 6.414062 C 27.503906 6.136719 27.46875 5.925781 26.980469 5.71875 C 26.878906 5.683594 17.289062 1.429688 17.289062 1.429688 C 17.152344 1.359375 17.011719 1.359375 16.871094 1.429688 L 7.113281 5.753906 C 6.9375 5.820312 6.796875 6.03125 6.796875 6.238281 C 6.796875 6.449219 6.902344 6.625 7.113281 6.726562 Z M 23.078125 12.480469 C 23.078125 15.828125 20.359375 18.546875 17.011719 18.546875 C 13.664062 18.546875 10.945312 15.828125 10.945312 12.480469 C 10.945312 11.191406 11.363281 9.96875 12.097656 8.925781 L 16.835938 11.050781 C 16.90625 11.085938 16.976562 11.085938 17.046875 11.085938 C 17.117188 11.085938 17.1875 11.085938 17.257812 11.050781 L 21.925781 8.960938 C 22.695312 10.003906 23.078125 11.226562 23.078125 12.480469 Z M 26.738281 15.617188 L 26.980469 15.09375 L 27.191406 15.617188 Z M 17.082031 2.476562 L 25.554688 6.238281 L 17.082031 10.003906 L 8.609375 6.238281 Z M 17.082031 2.476562 "/>
<path style=" stroke:none;fill-rule:nonzero;fill:rgb(0%,0%,0%);fill-opacity:1;" d="M 17.222656 20.847656 C 10.421875 20.847656 4.878906 26.390625 4.878906 33.1875 C 4.878906 33.464844 5.125 33.710938 5.402344 33.710938 L 29.039062 33.710938 C 29.316406 33.710938 29.5625 33.464844 29.5625 33.1875 C 29.5625 26.390625 24.019531 20.847656 17.222656 20.847656 Z M 5.960938 32.664062 C 6.238281 26.667969 11.191406 21.890625 17.257812 21.890625 C 23.320312 21.890625 28.238281 26.703125 28.515625 32.664062 Z M 5.960938 32.664062 "/>
</g>
</svg>
