<?xml version="1.0" encoding="UTF-8"?>
<svg xmlns="http://www.w3.org/2000/svg" xmlns:xlink="http://www.w3.org/1999/xlink" width="128pt" height="128pt" viewBox="0 0 128 128" version="1.1">
<g id="surface1">
<path style=" stroke:none;fill-rule:evenodd;fill:rgb(0%,0%,0%);fill-opacity:1;" d="M 64 44.6875 C 67.980469 44.6875 71.210938 47.914062 71.210938 51.898438 C 71.210938 55.878906 67.980469 59.105469 64 59.105469 C 60.019531 59.105469 56.789062 55.878906 56.789062 51.898438 C 56.789062 47.914062 60.019531 44.6875 64 44.6875 M 46.015625 51.898438 L 46.015625 53.1875 L 50.992188 53.929688 C 51.132812 54.871094 51.382812 55.773438 51.710938 56.640625 L 47.777344 59.769531 L 49.070312 62.007812 L 53.75 60.167969 C 54.339844 60.894531 55 61.558594 55.734375 62.144531 L 53.890625 66.828125 L 56.125 68.117188 L 59.257812 64.183594 C 60.121094 64.519531 61.023438 64.765625 61.964844 64.910156 L 62.714844 69.878906 L 65.292969 69.878906 L 66.039062 64.910156 C 66.976562 64.765625 67.882812 64.519531 68.742188 64.183594 L 71.878906 68.117188 L 74.109375 66.828125 L 72.269531 62.144531 C 72.996094 61.558594 73.660156 60.894531 74.246094 60.167969 L 78.929688 62.007812 L 80.222656 59.769531 L 76.289062 56.640625 C 76.625 55.773438 76.867188 54.871094 77.015625 53.929688 L 81.988281 53.183594 L 81.988281 50.605469 L 77.015625 49.855469 C 76.867188 48.921875 76.625 48.011719 76.289062 47.152344 L 80.222656 44.015625 L 78.929688 41.789062 L 74.246094 43.625 C 73.660156 42.898438 72.996094 42.234375 72.269531 41.648438 L 74.109375 36.96875 L 71.878906 35.675781 L 68.742188 39.609375 C 67.882812 39.273438 66.976562 39.027344 66.039062 38.882812 L 65.292969 33.90625 L 62.714844 33.90625 L 61.964844 38.882812 C 61.023438 39.027344 60.121094 39.273438 59.257812 39.609375 L 56.125 35.675781 L 53.890625 36.96875 L 55.734375 41.648438 C 55 42.234375 54.339844 42.898438 53.75 43.625 L 49.070312 41.789062 L 47.777344 44.015625 L 51.710938 47.152344 C 51.382812 48.011719 51.132812 48.921875 50.992188 49.855469 L 46.015625 50.605469 Z M 101.472656 29.554688 C 101.878906 29.316406 102.402344 29.457031 102.640625 29.863281 C 102.878906 30.273438 102.738281 30.796875 102.328125 31.035156 L 94.691406 35.445312 C 94.277344 35.683594 93.753906 35.542969 93.515625 35.136719 C 93.277344 34.726562 93.417969 34.199219 93.832031 33.964844 Z M 107.867188 51.699219 C 108.339844 51.699219 108.726562 52.085938 108.726562 52.558594 C 108.726562 53.035156 108.339844 53.417969 107.867188 53.417969 L 99.042969 53.417969 C 98.566406 53.417969 98.183594 53.035156 98.183594 52.558594 C 98.183594 52.085938 98.566406 51.699219 99.042969 51.699219 Z M 41.664062 14.421875 C 41.429688 14.011719 41.566406 13.484375 41.972656 13.25 C 42.382812 13.011719 42.910156 13.152344 43.148438 13.5625 L 47.554688 21.207031 C 47.792969 21.609375 47.652344 22.136719 47.246094 22.371094 C 46.835938 22.609375 46.3125 22.472656 46.074219 22.058594 Z M 25.671875 31.035156 C 25.261719 30.796875 25.121094 30.273438 25.359375 29.863281 C 25.597656 29.457031 26.121094 29.316406 26.535156 29.554688 L 34.167969 33.964844 C 34.582031 34.199219 34.722656 34.726562 34.484375 35.136719 C 34.246094 35.542969 33.722656 35.683594 33.316406 35.445312 Z M 20.132812 53.417969 C 19.660156 53.417969 19.273438 53.035156 19.273438 52.558594 C 19.273438 52.085938 19.660156 51.699219 20.132812 51.699219 L 28.957031 51.699219 C 29.433594 51.699219 29.816406 52.085938 29.816406 52.558594 C 29.816406 53.035156 29.433594 53.417969 28.957031 53.417969 Z M 62.527344 7.347656 C 62.53125 6.878906 62.917969 6.5 63.390625 6.5 C 63.859375 6.507812 64.238281 6.898438 64.238281 7.367188 L 64.132812 14.882812 C 64.125 15.359375 63.742188 15.734375 63.265625 15.730469 C 62.796875 15.730469 62.414062 15.335938 62.421875 14.863281 Z M 41.023438 117.832031 C 40.546875 117.832031 40.164062 117.449219 40.164062 116.972656 C 40.164062 116.496094 40.546875 116.113281 41.023438 116.113281 L 72.4375 116.113281 C 72.90625 116.113281 73.296875 116.496094 73.296875 116.972656 C 73.296875 117.449219 72.90625 117.832031 72.4375 117.832031 Z M 57.503906 121.5 C 57.027344 121.5 56.644531 121.117188 56.644531 120.648438 C 56.644531 120.171875 57.027344 119.789062 57.503906 119.789062 L 82.4375 119.789062 C 82.910156 119.789062 83.296875 120.171875 83.296875 120.648438 C 83.296875 121.117188 82.910156 121.5 82.4375 121.5 Z M 84.984375 121.5 C 84.511719 121.5 84.128906 121.117188 84.128906 120.648438 C 84.128906 120.171875 84.511719 119.789062 84.984375 119.789062 L 88.109375 119.789062 C 88.578125 119.789062 88.960938 120.171875 88.960938 120.648438 C 88.960938 121.117188 88.578125 121.5 88.109375 121.5 Z M 34.988281 121.347656 C 34.511719 121.347656 34.128906 120.960938 34.128906 120.488281 C 34.128906 120.011719 34.511719 119.628906 34.988281 119.628906 L 46.800781 119.628906 C 47.273438 119.628906 47.660156 120.011719 47.660156 120.488281 C 47.660156 120.960938 47.273438 121.347656 46.800781 121.347656 Z M 44.996094 86.820312 C 45.324219 86.820312 45.660156 86.605469 45.773438 86.339844 C 46.058594 85.757812 45.621094 85.101562 44.996094 85.101562 L 43.277344 85.101562 C 42.957031 85.101562 42.621094 85.3125 42.511719 85.585938 C 42.222656 86.15625 42.664062 86.820312 43.277344 86.820312 Z M 82.925781 86.820312 C 83.246094 86.820312 83.589844 86.605469 83.695312 86.339844 C 83.980469 85.757812 83.546875 85.101562 82.925781 85.101562 L 81.207031 85.101562 C 80.886719 85.101562 80.542969 85.3125 80.4375 85.585938 C 80.152344 86.15625 80.585938 86.820312 81.207031 86.820312 Z M 89.792969 86.820312 C 90.113281 86.820312 90.457031 86.605469 90.5625 86.339844 C 90.847656 85.757812 90.414062 85.101562 89.792969 85.101562 L 88.074219 85.101562 C 87.753906 85.101562 87.410156 85.3125 87.304688 85.585938 C 87.019531 86.15625 87.453125 86.820312 88.074219 86.820312 Z M 36.417969 85.101562 C 36.089844 85.101562 35.753906 85.3125 35.644531 85.585938 C 35.355469 86.15625 35.796875 86.820312 36.417969 86.820312 L 38.128906 86.820312 C 38.457031 86.820312 38.792969 86.605469 38.90625 86.339844 C 39.191406 85.757812 38.753906 85.101562 38.128906 85.101562 Z M 44.996094 82.441406 C 45.324219 82.441406 45.660156 82.230469 45.773438 81.957031 C 46.058594 81.386719 45.621094 80.722656 44.996094 80.722656 L 43.277344 80.722656 C 42.957031 80.722656 42.621094 80.929688 42.511719 81.203125 C 42.222656 81.777344 42.664062 82.441406 43.277344 82.441406 Z M 82.925781 82.441406 C 83.246094 82.441406 83.589844 82.230469 83.695312 81.957031 C 83.980469 81.386719 83.546875 80.722656 82.925781 80.722656 L 81.207031 80.722656 C 80.886719 80.722656 80.542969 80.929688 80.4375 81.203125 C 80.152344 81.777344 80.585938 82.441406 81.207031 82.441406 Z M 89.792969 82.441406 C 90.113281 82.441406 90.457031 82.230469 90.5625 81.957031 C 90.847656 81.386719 90.414062 80.722656 89.792969 80.722656 L 88.074219 80.722656 C 87.753906 80.722656 87.410156 80.929688 87.304688 81.203125 C 87.019531 81.777344 87.453125 82.441406 88.074219 82.441406 Z M 36.417969 80.722656 C 36.089844 80.722656 35.753906 80.929688 35.644531 81.203125 C 35.355469 81.777344 35.796875 82.441406 36.417969 82.441406 L 38.128906 82.441406 C 38.457031 82.441406 38.792969 82.230469 38.90625 81.957031 C 39.191406 81.386719 38.753906 80.722656 38.128906 80.722656 Z M 84.851562 13.5625 C 85.089844 13.152344 85.617188 13.011719 86.027344 13.25 C 86.433594 13.484375 86.570312 14.011719 86.339844 14.421875 L 81.925781 22.058594 C 81.6875 22.46875 81.164062 22.609375 80.757812 22.371094 C 80.347656 22.136719 80.207031 21.609375 80.445312 21.207031 Z M 51.453125 95.601562 L 76.554688 95.601562 L 76.554688 101.589844 L 51.453125 101.589844 Z M 53.828125 107.570312 L 74.171875 107.570312 L 74.171875 103.308594 L 53.828125 103.308594 Z M 70.078125 109.289062 L 70.078125 113.554688 L 57.921875 113.554688 L 57.921875 109.289062 Z M 64 24.152344 C 79.65625 24.152344 92.347656 36.847656 92.347656 52.503906 C 92.347656 62.214844 87.464844 70.785156 80.019531 75.894531 L 74.757812 93.324219 C 74.703125 93.507812 74.667969 93.695312 74.640625 93.882812 L 53.359375 93.882812 C 53.339844 93.695312 53.304688 93.507812 53.246094 93.324219 L 47.980469 75.894531 C 40.539062 70.785156 35.648438 62.214844 35.648438 52.503906 C 35.648438 36.847656 48.34375 24.152344 64 24.152344 Z M 64 24.152344 "/>
</g>
</svg>
