<?xml version="1.0" encoding="UTF-8"?>
<svg xmlns="http://www.w3.org/2000/svg" xmlns:xlink="http://www.w3.org/1999/xlink" width="35pt" height="35pt" viewBox="0 0 35 35" version="1.1">
<g id="surface1">
<path style=" stroke:none;fill-rule:nonzero;fill:rgb(0%,0%,0%);fill-opacity:1;" d="M 15.273438 21.054688 C 15.261719 21.09375 15.179688 21.089844 15.03125 21.046875 C 14.878906 21 14.675781 20.925781 14.414062 20.820312 L 14.023438 20.644531 C 13.449219 20.382812 12.882812 20.066406 12.324219 19.6875 C 12.234375 19.621094 11.964844 19.417969 11.523438 19.070312 C 11.082031 18.726562 10.832031 18.542969 10.78125 18.515625 C 9.910156 19.855469 9.035156 21.035156 8.164062 22.050781 C 7.109375 23.289062 6.425781 24.003906 6.113281 24.199219 C 6.0625 24.226562 5.933594 24.25 5.734375 24.277344 C 5.53125 24.304688 5.410156 24.304688 5.371094 24.277344 C 5.449219 24.226562 5.984375 23.625 6.972656 22.480469 C 7.246094 22.167969 7.804688 21.417969 8.640625 20.234375 C 9.484375 19.050781 9.992188 18.28125 10.175781 17.929688 C 10.398438 17.539062 10.730469 16.898438 11.171875 16.007812 C 11.613281 15.113281 11.847656 14.609375 11.875 14.492188 C 11.769531 14.480469 11.054688 14.695312 9.726562 15.136719 C 9.621094 15.164062 9.445312 15.210938 9.1875 15.28125 C 8.9375 15.355469 8.710938 15.417969 8.515625 15.46875 C 8.320312 15.519531 8.210938 15.554688 8.183594 15.566406 C 8.15625 15.59375 8.144531 15.660156 8.144531 15.773438 C 8.144531 15.882812 8.136719 15.945312 8.125 15.957031 C 8.058594 16.085938 7.859375 16.183594 7.519531 16.25 C 7.21875 16.339844 6.914062 16.339844 6.601562 16.25 C 6.367188 16.199219 6.183594 16.0625 6.054688 15.839844 C 6.003906 15.761719 5.96875 15.613281 5.957031 15.390625 C 6.035156 15.363281 6.195312 15.332031 6.4375 15.292969 C 6.675781 15.253906 6.867188 15.214844 7.011719 15.175781 C 7.765625 14.96875 8.449219 14.757812 9.0625 14.550781 C 10.363281 14.09375 11.027344 13.867188 11.054688 13.867188 C 11.183594 13.839844 11.464844 13.714844 11.894531 13.484375 C 12.324219 13.257812 12.609375 13.117188 12.753906 13.066406 C 12.871094 13.027344 13.011719 12.976562 13.171875 12.910156 C 13.335938 12.84375 13.429688 12.808594 13.457031 12.804688 C 13.484375 12.796875 13.523438 12.800781 13.574219 12.8125 C 13.601562 12.96875 13.59375 13.183594 13.554688 13.457031 C 13.554688 13.484375 13.472656 13.660156 13.3125 13.984375 C 13.148438 14.308594 12.976562 14.65625 12.792969 15.03125 C 12.609375 15.398438 12.5 15.617188 12.460938 15.683594 C 12.136719 16.335938 11.632812 17.1875 10.957031 18.242188 L 12.207031 18.789062 C 12.363281 18.867188 12.847656 19.074219 13.664062 19.414062 C 14.476562 19.753906 14.914062 19.933594 14.980469 19.960938 C 15.03125 19.972656 15.101562 20.140625 15.1875 20.460938 C 15.269531 20.777344 15.300781 20.976562 15.273438 21.054688 Z M 11.269531 11.5625 C 11.308594 11.757812 11.28125 11.941406 11.191406 12.109375 C 11.035156 12.410156 10.710938 12.65625 10.214844 12.851562 C 9.824219 13.007812 9.433594 13.085938 9.042969 13.085938 C 8.703125 13.046875 8.386719 12.878906 8.085938 12.578125 C 7.902344 12.382812 7.785156 12.117188 7.734375 11.777344 L 7.753906 11.71875 C 7.792969 11.757812 7.921875 11.789062 8.132812 11.816406 C 8.351562 11.84375 8.523438 11.84375 8.652344 11.816406 C 8.78125 11.789062 9.160156 11.6875 9.785156 11.503906 C 10.253906 11.347656 10.613281 11.257812 10.859375 11.230469 C 11.082031 11.230469 11.21875 11.339844 11.269531 11.5625 Z M 24.902344 14.082031 L 26.132812 18.515625 L 23.417969 17.695312 Z M 3.261719 29.707031 L 16.816406 25.175781 L 16.816406 5.019531 L 3.261719 9.570312 Z M 27.5 23.515625 L 29.492188 24.121094 L 25.957031 11.289062 L 24.003906 10.683594 L 19.785156 21.152344 L 21.777344 21.757812 L 22.65625 19.609375 L 26.777344 20.878906 Z M 17.675781 4.726562 L 28.867188 8.320312 L 28.867188 0.898438 Z M 23.75 30.566406 L 26.835938 30.820312 L 25.78125 33.945312 L 25 32.65625 C 23.308594 33.738281 21.511719 34.441406 19.609375 34.765625 C 18.855469 34.921875 18.261719 35 17.832031 35 L 16.191406 35 C 15.164062 35 13.863281 34.746094 12.296875 34.238281 C 10.726562 33.730469 9.53125 33.175781 8.710938 32.578125 C 8.605469 32.488281 8.554688 32.382812 8.554688 32.265625 C 8.554688 32.160156 8.585938 32.074219 8.652344 32 C 8.71875 31.929688 8.800781 31.894531 8.90625 31.894531 C 8.957031 31.894531 9.074219 31.945312 9.257812 32.039062 C 9.441406 32.140625 9.640625 32.246094 9.851562 32.363281 C 10.070312 32.480469 10.203125 32.550781 10.253906 32.578125 C 11.203125 33.058594 12.242188 33.460938 13.367188 33.78125 C 14.496094 34.097656 15.519531 34.257812 16.445312 34.257812 C 17.683594 34.257812 18.769531 34.164062 19.707031 33.976562 C 20.644531 33.785156 21.667969 33.457031 22.773438 32.988281 C 22.96875 32.898438 23.167969 32.796875 23.367188 32.6875 C 23.570312 32.574219 23.792969 32.453125 24.03125 32.3125 C 24.273438 32.179688 24.460938 32.070312 24.589844 31.992188 Z M 32.5 9.492188 L 32.5 30.566406 L 17.382812 25.761719 C 17.199219 25.839844 14.757812 26.671875 10.058594 28.25 C 5.359375 29.835938 2.960938 30.625 2.871094 30.625 C 2.703125 30.625 2.585938 30.539062 2.519531 30.371094 C 2.519531 30.359375 2.511719 30.339844 2.5 30.3125 L 2.5 9.257812 C 2.539062 9.140625 2.566406 9.074219 2.578125 9.0625 C 2.644531 8.984375 2.773438 8.914062 2.96875 8.847656 C 4.347656 8.390625 5.320312 8.066406 5.878906 7.871094 L 5.878906 0.371094 L 16.777344 4.238281 C 16.804688 4.238281 17.847656 3.878906 19.914062 3.164062 C 21.976562 2.449219 24.03125 1.742188 26.085938 1.046875 C 28.132812 0.347656 29.1875 0 29.238281 0 C 29.5 0 29.628906 0.136719 29.628906 0.410156 L 29.628906 8.574219 Z M 32.5 9.492188 "/>
</g>
</svg>
