<?xml version="1.0" encoding="UTF-8"?>
<svg xmlns="http://www.w3.org/2000/svg" xmlns:xlink="http://www.w3.org/1999/xlink" width="22pt" height="22pt" viewBox="0 0 22 22" version="1.1">
<g id="surface1">
<path style=" stroke:none;fill-rule:nonzero;fill:rgb(0%,0%,0%);fill-opacity:1;" d="M 4.480469 17.359375 L 7.316406 17.359375 L 7.316406 8.839844 L 4.480469 8.839844 Z M 7.5 6.210938 C 7.492188 5.785156 7.34375 5.433594 7.058594 5.15625 C 6.773438 4.878906 6.390625 4.738281 5.917969 4.738281 C 5.441406 4.738281 5.054688 4.878906 4.757812 5.15625 C 4.457031 5.433594 4.308594 5.785156 4.308594 6.210938 C 4.308594 6.628906 4.453125 6.980469 4.746094 7.261719 C 5.035156 7.542969 5.414062 7.683594 5.878906 7.683594 L 5.894531 7.683594 C 6.375 7.683594 6.765625 7.542969 7.058594 7.261719 C 7.355469 6.980469 7.5 6.628906 7.5 6.210938 Z M 14.683594 17.359375 L 17.519531 17.359375 L 17.519531 12.472656 C 17.519531 11.210938 17.21875 10.257812 16.621094 9.613281 C 16.023438 8.964844 15.234375 8.644531 14.253906 8.644531 C 13.140625 8.644531 12.285156 9.121094 11.6875 10.078125 L 11.710938 10.078125 L 11.710938 8.839844 L 8.875 8.839844 C 8.902344 9.378906 8.902344 12.21875 8.875 17.359375 L 11.710938 17.359375 L 11.710938 12.597656 C 11.710938 12.285156 11.742188 12.054688 11.796875 11.910156 C 11.921875 11.621094 12.105469 11.378906 12.351562 11.179688 C 12.597656 10.976562 12.898438 10.878906 13.257812 10.878906 C 14.207031 10.878906 14.683594 11.519531 14.683594 12.804688 Z M 20.429688 5.105469 L 20.429688 16.894531 C 20.429688 17.867188 20.082031 18.699219 19.390625 19.390625 C 18.699219 20.082031 17.867188 20.429688 16.894531 20.429688 L 5.105469 20.429688 C 4.132812 20.429688 3.300781 20.082031 2.609375 19.390625 C 1.917969 18.699219 1.570312 17.867188 1.570312 16.894531 L 1.570312 5.105469 C 1.570312 4.132812 1.917969 3.300781 2.609375 2.609375 C 3.300781 1.917969 4.132812 1.570312 5.105469 1.570312 L 16.894531 1.570312 C 17.867188 1.570312 18.699219 1.917969 19.390625 2.609375 C 20.082031 3.300781 20.429688 4.132812 20.429688 5.105469 Z M 20.429688 5.105469 "/>
</g>
</svg>
