<?xml version="1.0" encoding="UTF-8"?>
<svg xmlns="http://www.w3.org/2000/svg" xmlns:xlink="http://www.w3.org/1999/xlink" width="22pt" height="22pt" viewBox="0 0 22 22" version="1.1">
<g id="surface1">
<path style=" stroke:none;fill-rule:nonzero;fill:rgb(20%,20%,20%);fill-opacity:1;" d="M 11 0 C 4.925781 0 0 4.925781 0 11 C 0 17.074219 4.925781 22 11 22 C 17.074219 22 22 17.074219 22 11 C 22 4.925781 17.074219 0 11 0 Z M 11 0 "/>
<path style=" stroke:none;fill-rule:nonzero;fill:rgb(100%,100%,100%);fill-opacity:1;" d="M 4.480469 14.996094 L 8.046875 10.511719 L 4.480469 8.332031 Z M 4.480469 14.996094 "/>
<path style=" stroke:none;fill-rule:nonzero;fill:rgb(100%,100%,100%);fill-opacity:1;" d="M 13.40625 10.824219 L 10.992188 12.3125 L 8.574219 10.832031 L 4.886719 15.46875 L 17.097656 15.46875 Z M 13.40625 10.824219 "/>
<path style=" stroke:none;fill-rule:nonzero;fill:rgb(100%,100%,100%);fill-opacity:1;" d="M 10.992188 11.59375 L 17.519531 7.574219 L 17.519531 6.53125 L 4.480469 6.53125 L 4.480469 7.613281 Z M 10.992188 11.59375 "/>
<path style=" stroke:none;fill-rule:nonzero;fill:rgb(100%,100%,100%);fill-opacity:1;" d="M 13.929688 10.503906 L 17.519531 15.015625 L 17.519531 8.292969 Z M 13.929688 10.503906 "/>
</g>
</svg>
