<?xml version="1.0" encoding="UTF-8"?>
<svg xmlns="http://www.w3.org/2000/svg" xmlns:xlink="http://www.w3.org/1999/xlink" width="22pt" height="22pt" viewBox="0 0 22 22" version="1.1">
<g id="surface1">
<path style=" stroke:none;fill-rule:nonzero;fill:rgb(0%,0%,0%);fill-opacity:1;" d="M 11 13.355469 C 11.539062 13.355469 12.0625 13.296875 12.570312 13.171875 L 12.570312 21.214844 C 12.570312 21.425781 12.492188 21.609375 12.339844 21.765625 C 12.183594 21.921875 12 22 11.785156 22 L 10.214844 22 C 10 22 9.816406 21.921875 9.660156 21.765625 C 9.507812 21.609375 9.429688 21.425781 9.429688 21.214844 L 9.429688 13.171875 C 9.929688 13.296875 10.453125 13.355469 11 13.355469 Z M 11 0 C 12.734375 0 14.214844 0.613281 15.445312 1.839844 C 16.671875 3.070312 17.285156 4.550781 17.285156 6.285156 C 17.285156 8.019531 16.671875 9.503906 15.445312 10.730469 C 14.214844 11.957031 12.734375 12.570312 11 12.570312 C 9.265625 12.570312 7.785156 11.957031 6.554688 10.730469 C 5.328125 9.503906 4.714844 8.019531 4.714844 6.285156 C 4.714844 4.550781 5.328125 3.070312 6.554688 1.839844 C 7.785156 0.613281 9.265625 0 11 0 Z M 11 2.75 C 11.113281 2.75 11.207031 2.714844 11.28125 2.640625 C 11.355469 2.566406 11.394531 2.472656 11.394531 2.355469 C 11.394531 2.242188 11.355469 2.148438 11.28125 2.074219 C 11.207031 2 11.113281 1.964844 11 1.964844 C 9.804688 1.964844 8.785156 2.386719 7.941406 3.230469 C 7.101562 4.070312 6.679688 5.089844 6.679688 6.285156 C 6.679688 6.398438 6.714844 6.496094 6.789062 6.566406 C 6.863281 6.640625 6.957031 6.679688 7.070312 6.679688 C 7.1875 6.679688 7.28125 6.640625 7.355469 6.566406 C 7.425781 6.496094 7.464844 6.398438 7.464844 6.285156 C 7.464844 5.3125 7.808594 4.480469 8.5 3.789062 C 9.191406 3.097656 10.027344 2.75 11 2.75 Z M 11 2.75 "/>
</g>
</svg>
