<?xml version="1.0" encoding="UTF-8"?>
<svg xmlns="http://www.w3.org/2000/svg" xmlns:xlink="http://www.w3.org/1999/xlink" width="22pt" height="22pt" viewBox="0 0 22 22" version="1.1">
<g id="surface1">
<path style=" stroke:none;fill-rule:nonzero;fill:rgb(0%,0%,0%);fill-opacity:1;" d="M 18.65625 14.3125 C 18.234375 13.617188 17.121094 13.3125 16.496094 13.191406 C 15.355469 12.972656 13.886719 12.988281 13.175781 13.523438 C 12.9375 13.699219 12.824219 14.0625 12.796875 14.703125 C 12.792969 14.785156 12.789062 14.867188 12.789062 14.945312 C 11.578125 14.480469 10.460938 13.78125 9.507812 12.898438 L 9.089844 12.480469 C 8.199219 11.535156 7.5 10.425781 7.03125 9.222656 C 7.109375 9.222656 7.191406 9.21875 7.277344 9.214844 C 7.917969 9.191406 8.285156 9.074219 8.460938 8.839844 C 8.996094 8.136719 9.015625 6.679688 8.796875 5.546875 C 8.675781 4.921875 8.367188 3.808594 7.667969 3.386719 C 6.96875 2.964844 5.886719 3.066406 5.457031 3.128906 C 4.566406 3.261719 3.824219 3.574219 3.476562 3.972656 C 3.167969 4.316406 3.0625 5.304688 3.03125 5.714844 C 3.03125 5.726562 3.027344 5.734375 3.03125 5.746094 C 3.082031 9.074219 4.363281 12.253906 6.632812 14.695312 C 6.636719 14.695312 6.640625 14.703125 6.644531 14.703125 L 7.28125 15.339844 C 7.28125 15.34375 7.285156 15.351562 7.289062 15.355469 C 9.742188 17.613281 12.9375 18.863281 16.285156 18.949219 C 16.285156 18.949219 16.289062 18.949219 16.289062 18.949219 C 16.296875 18.949219 16.308594 18.9375 16.316406 18.9375 C 16.726562 18.90625 17.71875 18.789062 18.066406 18.484375 C 18.464844 18.136719 18.78125 17.398438 18.914062 16.511719 C 18.976562 16.082031 19.078125 15.007812 18.65625 14.3125 Z M 18.230469 16.414062 C 18.128906 17.109375 17.878906 17.734375 17.613281 17.96875 C 17.492188 18.066406 16.871094 18.191406 16.277344 18.238281 C 13.109375 18.1875 10.085938 16.980469 7.761719 14.84375 L 7.132812 14.21875 C 4.984375 11.90625 3.769531 8.902344 3.71875 5.75 C 3.765625 5.164062 3.890625 4.546875 3.992188 4.425781 C 4.226562 4.160156 4.855469 3.914062 5.554688 3.8125 C 6.292969 3.703125 6.964844 3.765625 7.3125 3.976562 C 7.648438 4.175781 7.957031 4.828125 8.121094 5.679688 C 8.335938 6.792969 8.25 7.964844 7.921875 8.414062 C 7.785156 8.507812 7.183594 8.558594 6.617188 8.527344 C 6.554688 8.511719 6.488281 8.511719 6.421875 8.53125 C 6.367188 8.550781 6.320312 8.582031 6.28125 8.625 C 6.226562 8.679688 6.191406 8.753906 6.183594 8.839844 C 6.179688 8.910156 6.195312 8.980469 6.230469 9.039062 C 6.707031 10.429688 7.464844 11.714844 8.457031 12.808594 C 8.46875 12.828125 8.480469 12.84375 8.496094 12.863281 C 8.597656 12.96875 8.703125 13.078125 8.808594 13.179688 C 8.914062 13.285156 9.019531 13.390625 9.128906 13.492188 C 9.148438 13.507812 9.164062 13.519531 9.183594 13.53125 C 10.285156 14.515625 11.578125 15.273438 12.972656 15.742188 C 13.03125 15.777344 13.101562 15.796875 13.171875 15.789062 C 13.257812 15.785156 13.332031 15.746094 13.390625 15.691406 C 13.394531 15.6875 13.398438 15.679688 13.40625 15.675781 C 13.40625 15.671875 13.410156 15.671875 13.410156 15.671875 C 13.441406 15.636719 13.464844 15.597656 13.480469 15.550781 C 13.5 15.484375 13.503906 15.417969 13.488281 15.359375 C 13.453125 14.796875 13.503906 14.199219 13.597656 14.066406 C 14.054688 13.734375 15.238281 13.648438 16.367188 13.867188 C 17.214844 14.03125 17.867188 14.339844 18.066406 14.667969 C 18.277344 15.015625 18.339844 15.683594 18.230469 16.414062 Z M 18.230469 16.414062 "/>
</g>
</svg>
