<?xml version="1.0" encoding="UTF-8"?>
<svg xmlns="http://www.w3.org/2000/svg" xmlns:xlink="http://www.w3.org/1999/xlink" width="22pt" height="22pt" viewBox="0 0 22 22" version="1.1">
<g id="surface1">
<path style=" stroke:none;fill-rule:nonzero;fill:rgb(0%,0%,0%);fill-opacity:1;" d="M 17.285156 14.644531 C 17.285156 14.554688 17.277344 14.492188 17.261719 14.449219 C 17.238281 14.382812 17.078125 14.261719 16.789062 14.085938 C 16.496094 13.910156 16.136719 13.710938 15.703125 13.480469 L 15.050781 13.125 C 15.011719 13.097656 14.933594 13.046875 14.816406 12.964844 C 14.703125 12.882812 14.601562 12.820312 14.511719 12.78125 C 14.421875 12.738281 14.335938 12.71875 14.253906 12.71875 C 14.105469 12.71875 13.914062 12.851562 13.675781 13.117188 C 13.4375 13.382812 13.207031 13.652344 12.976562 13.921875 C 12.746094 14.191406 12.566406 14.328125 12.4375 14.328125 C 12.378906 14.328125 12.3125 14.3125 12.234375 14.285156 C 12.15625 14.253906 12.09375 14.230469 12.042969 14.203125 C 11.996094 14.179688 11.925781 14.140625 11.835938 14.085938 C 11.746094 14.035156 11.6875 14 11.664062 13.984375 C 10.851562 13.53125 10.15625 13.015625 9.570312 12.429688 C 8.984375 11.84375 8.46875 11.148438 8.015625 10.335938 C 8 10.3125 7.964844 10.253906 7.914062 10.164062 C 7.859375 10.074219 7.820312 10.003906 7.796875 9.957031 C 7.769531 9.90625 7.746094 9.84375 7.714844 9.765625 C 7.6875 9.6875 7.671875 9.621094 7.671875 9.5625 C 7.671875 9.457031 7.757812 9.320312 7.925781 9.152344 C 8.09375 8.984375 8.277344 8.828125 8.476562 8.679688 C 8.675781 8.53125 8.863281 8.371094 9.03125 8.195312 C 9.199219 8.019531 9.28125 7.871094 9.28125 7.746094 C 9.28125 7.664062 9.261719 7.578125 9.21875 7.488281 C 9.179688 7.398438 9.117188 7.296875 9.035156 7.183594 C 8.953125 7.066406 8.902344 6.988281 8.875 6.949219 C 8.851562 6.898438 8.789062 6.78125 8.691406 6.597656 C 8.59375 6.414062 8.492188 6.226562 8.386719 6.039062 C 8.277344 5.851562 8.171875 5.65625 8.058594 5.457031 C 7.949219 5.257812 7.847656 5.089844 7.753906 4.960938 C 7.660156 4.828125 7.589844 4.753906 7.550781 4.738281 C 7.507812 4.722656 7.445312 4.714844 7.355469 4.714844 C 6.960938 4.714844 6.546875 4.804688 6.113281 4.984375 C 5.738281 5.15625 5.410156 5.542969 5.132812 6.144531 C 4.851562 6.746094 4.714844 7.28125 4.714844 7.746094 C 4.714844 7.878906 4.722656 8.015625 4.746094 8.164062 C 4.765625 8.3125 4.785156 8.4375 4.804688 8.539062 C 4.828125 8.640625 4.863281 8.777344 4.917969 8.945312 C 4.96875 9.113281 5.011719 9.230469 5.039062 9.304688 C 5.066406 9.378906 5.121094 9.515625 5.191406 9.710938 C 5.265625 9.90625 5.3125 10.03125 5.328125 10.078125 C 5.820312 11.421875 6.707031 12.734375 7.984375 14.015625 C 9.265625 15.292969 10.578125 16.179688 11.921875 16.671875 C 11.96875 16.6875 12.09375 16.734375 12.289062 16.808594 C 12.484375 16.878906 12.621094 16.933594 12.695312 16.960938 C 12.769531 16.988281 12.886719 17.03125 13.054688 17.082031 C 13.222656 17.136719 13.359375 17.171875 13.460938 17.195312 C 13.5625 17.214844 13.6875 17.234375 13.835938 17.253906 C 13.984375 17.277344 14.121094 17.285156 14.253906 17.285156 C 14.71875 17.285156 15.253906 17.148438 15.855469 16.867188 C 16.457031 16.589844 16.84375 16.261719 17.015625 15.886719 C 17.195312 15.453125 17.285156 15.039062 17.285156 14.644531 Z M 20.429688 5.105469 L 20.429688 16.894531 C 20.429688 17.867188 20.082031 18.699219 19.390625 19.390625 C 18.699219 20.082031 17.867188 20.429688 16.894531 20.429688 L 5.105469 20.429688 C 4.132812 20.429688 3.300781 20.082031 2.609375 19.390625 C 1.917969 18.699219 1.570312 17.867188 1.570312 16.894531 L 1.570312 5.105469 C 1.570312 4.132812 1.917969 3.300781 2.609375 2.609375 C 3.300781 1.917969 4.132812 1.570312 5.105469 1.570312 L 16.894531 1.570312 C 17.867188 1.570312 18.699219 1.917969 19.390625 2.609375 C 20.082031 3.300781 20.429688 4.132812 20.429688 5.105469 Z M 20.429688 5.105469 "/>
</g>
</svg>
