<?xml version="1.0" encoding="UTF-8"?>
<svg xmlns="http://www.w3.org/2000/svg" xmlns:xlink="http://www.w3.org/1999/xlink" width="35pt" height="35pt" viewBox="0 0 35 35" version="1.1">
<g id="surface1">
<path style=" stroke:none;fill-rule:nonzero;fill:rgb(14.117647%,15.294118%,18.823529%);fill-opacity:1;" d="M 14.21875 1.457031 C 12.417969 1.457031 10.9375 2.941406 10.9375 4.738281 L 10.9375 5.832031 C 10.9375 6.238281 11.261719 6.5625 11.667969 6.5625 L 12.394531 6.5625 C 12.800781 6.5625 13.125 6.238281 13.125 5.832031 L 13.125 4.738281 C 13.125 4.113281 13.59375 3.644531 14.21875 3.644531 L 26.253906 3.644531 L 26.265625 8.375 C 26.265625 8.976562 26.753906 9.464844 27.355469 9.464844 L 32.082031 9.476562 L 32.082031 30.257812 C 32.082031 30.882812 31.613281 31.351562 30.988281 31.351562 L 14.21875 31.351562 C 13.59375 31.351562 13.125 30.882812 13.125 30.257812 L 13.125 18.230469 C 13.125 17.824219 12.800781 17.5 12.394531 17.5 L 11.667969 17.5 C 11.261719 17.5 10.9375 17.824219 10.9375 18.230469 L 10.9375 30.261719 C 10.9375 32.058594 12.417969 33.542969 14.21875 33.542969 L 30.988281 33.542969 C 32.789062 33.542969 34.269531 32.058594 34.269531 30.261719 L 34.269531 8.03125 C 34.269531 7.742188 34.15625 7.460938 33.949219 7.257812 L 28.472656 1.777344 C 28.265625 1.574219 27.988281 1.457031 27.699219 1.457031 Z M 2.917969 8.019531 C 2.109375 8.019531 1.457031 8.671875 1.457031 9.480469 L 1.457031 14.582031 C 1.457031 15.390625 2.109375 16.042969 2.917969 16.042969 L 21.144531 16.042969 C 21.953125 16.042969 22.605469 15.390625 22.605469 14.582031 L 22.605469 9.480469 C 22.605469 8.671875 21.953125 8.019531 21.144531 8.019531 Z M 4.894531 10.179688 C 5.179688 10.179688 5.453125 10.246094 5.746094 10.375 C 5.816406 10.242188 5.890625 10.1875 6.023438 10.1875 C 6.210938 10.1875 6.289062 10.265625 6.289062 10.519531 L 6.296875 11.292969 C 6.296875 11.546875 6.234375 11.636719 5.988281 11.636719 C 5.804688 11.636719 5.738281 11.546875 5.683594 11.359375 C 5.585938 11.011719 5.40625 10.832031 4.96875 10.832031 C 4.367188 10.832031 4.027344 11.242188 4.027344 12.03125 C 4.027344 12.8125 4.367188 13.230469 4.976562 13.230469 C 5.53125 13.230469 5.867188 12.820312 6.132812 12.820312 C 6.285156 12.820312 6.40625 12.964844 6.40625 13.160156 C 6.40625 13.476562 5.730469 13.886719 4.914062 13.886719 C 3.871094 13.886719 3.179688 13.121094 3.179688 12.03125 C 3.179688 10.996094 3.882812 10.179688 4.894531 10.179688 Z M 15.71875 10.179688 C 15.992188 10.179688 16.238281 10.234375 16.496094 10.34375 C 16.5625 10.199219 16.632812 10.179688 16.796875 10.179688 C 16.992188 10.179688 17.042969 10.242188 17.046875 10.496094 L 17.058594 11.066406 L 17.058594 11.097656 C 17.058594 11.320312 16.988281 11.414062 16.757812 11.414062 C 16.515625 11.414062 16.488281 11.28125 16.417969 11.132812 C 16.292969 10.898438 16.082031 10.761719 15.796875 10.761719 C 15.429688 10.761719 15.203125 10.957031 15.203125 11.199219 C 15.203125 11.511719 15.542969 11.539062 16.15625 11.667969 C 16.890625 11.820312 17.234375 12.148438 17.234375 12.746094 C 17.234375 13.476562 16.726562 13.882812 15.804688 13.882812 C 15.5 13.882812 15.222656 13.851562 14.914062 13.734375 C 14.84375 13.847656 14.765625 13.882812 14.632812 13.882812 C 14.390625 13.882812 14.296875 13.808594 14.292969 13.558594 L 14.277344 12.863281 L 14.277344 12.832031 C 14.277344 12.578125 14.359375 12.480469 14.609375 12.480469 C 14.839844 12.480469 14.871094 12.648438 14.980469 12.863281 C 15.136719 13.171875 15.402344 13.316406 15.804688 13.316406 C 16.160156 13.316406 16.378906 13.164062 16.378906 12.886719 C 16.378906 12.503906 16.039062 12.503906 15.375 12.328125 C 14.707031 12.152344 14.355469 11.929688 14.355469 11.328125 C 14.355469 10.65625 14.914062 10.179688 15.71875 10.179688 Z M 19.367188 10.179688 C 19.640625 10.179688 19.886719 10.234375 20.144531 10.34375 C 20.210938 10.199219 20.28125 10.179688 20.445312 10.179688 C 20.640625 10.179688 20.691406 10.242188 20.695312 10.496094 L 20.707031 11.066406 L 20.707031 11.097656 C 20.707031 11.320312 20.632812 11.414062 20.402344 11.414062 C 20.160156 11.414062 20.136719 11.28125 20.0625 11.132812 C 19.941406 10.898438 19.730469 10.761719 19.445312 10.761719 C 19.074219 10.761719 18.851562 10.957031 18.851562 11.199219 C 18.851562 11.511719 19.191406 11.539062 19.804688 11.667969 C 20.539062 11.820312 20.882812 12.148438 20.882812 12.746094 C 20.882812 13.476562 20.375 13.882812 19.453125 13.882812 C 19.148438 13.882812 18.871094 13.851562 18.5625 13.734375 C 18.496094 13.847656 18.414062 13.882812 18.28125 13.882812 C 18.039062 13.882812 17.949219 13.808594 17.941406 13.558594 L 17.921875 12.863281 L 17.921875 12.832031 C 17.921875 12.578125 18.007812 12.480469 18.257812 12.480469 C 18.488281 12.480469 18.519531 12.648438 18.628906 12.863281 C 18.785156 13.171875 19.050781 13.316406 19.453125 13.316406 C 19.808594 13.316406 20.027344 13.164062 20.027344 12.886719 C 20.027344 12.503906 19.6875 12.503906 19.019531 12.328125 C 18.355469 12.152344 18.003906 11.929688 18.003906 11.328125 C 18.003906 10.65625 18.558594 10.179688 19.367188 10.179688 Z M 7.128906 10.277344 L 8.398438 10.277344 C 8.640625 10.277344 8.761719 10.371094 8.761719 10.605469 C 8.761719 10.847656 8.640625 10.933594 8.398438 10.933594 L 8.136719 10.933594 L 8.136719 13.140625 L 9.484375 13.140625 L 9.484375 12.613281 C 9.484375 12.359375 9.570312 12.238281 9.804688 12.238281 C 10.046875 12.238281 10.128906 12.363281 10.128906 12.613281 L 10.128906 13.523438 C 10.128906 13.734375 10.066406 13.789062 9.816406 13.789062 L 7.128906 13.789062 C 6.886719 13.789062 6.773438 13.703125 6.773438 13.460938 C 6.773438 13.21875 6.886719 13.140625 7.128906 13.140625 L 7.390625 13.140625 L 7.390625 10.933594 L 7.128906 10.933594 C 6.886719 10.933594 6.773438 10.847656 6.773438 10.605469 C 6.773438 10.371094 6.886719 10.277344 7.128906 10.277344 Z M 11.183594 10.277344 L 12.296875 10.277344 C 12.5625 10.277344 12.585938 10.351562 12.664062 10.570312 L 13.605469 13.140625 L 13.652344 13.140625 C 13.867188 13.140625 13.980469 13.25 13.980469 13.460938 C 13.980469 13.710938 13.855469 13.789062 13.605469 13.789062 L 12.714844 13.789062 C 12.464844 13.789062 12.335938 13.710938 12.335938 13.460938 C 12.335938 13.214844 12.464844 13.140625 12.714844 13.140625 L 12.816406 13.140625 L 12.695312 12.796875 L 11.414062 12.796875 L 11.289062 13.140625 L 11.390625 13.140625 C 11.640625 13.140625 11.765625 13.214844 11.765625 13.460938 C 11.765625 13.710938 11.640625 13.789062 11.390625 13.789062 L 10.628906 13.789062 C 10.378906 13.789062 10.253906 13.710938 10.253906 13.460938 C 10.253906 13.25 10.367188 13.140625 10.578125 13.140625 L 10.628906 13.140625 L 11.421875 10.933594 L 11.179688 10.933594 C 10.929688 10.933594 10.808594 10.855469 10.808594 10.605469 C 10.808594 10.363281 10.929688 10.277344 11.183594 10.277344 Z M 12.050781 10.933594 L 11.621094 12.183594 L 12.484375 12.183594 Z M 14.582031 27.707031 C 14.179688 27.707031 13.855469 28.035156 13.855469 28.4375 L 13.855469 29.167969 C 13.855469 29.570312 14.179688 29.894531 14.582031 29.894531 L 16.769531 29.894531 C 17.175781 29.894531 17.5 29.570312 17.5 29.167969 L 17.5 28.4375 C 17.5 28.035156 17.175781 27.707031 16.769531 27.707031 Z M 18.957031 27.707031 C 18.554688 27.707031 18.230469 28.035156 18.230469 28.4375 L 18.230469 29.167969 C 18.230469 29.570312 18.554688 29.894531 18.957031 29.894531 L 21.144531 29.894531 C 21.550781 29.894531 21.875 29.570312 21.875 29.167969 L 21.875 28.4375 C 21.875 28.035156 21.550781 27.707031 21.144531 27.707031 Z M 23.332031 27.707031 C 22.929688 27.707031 22.605469 28.035156 22.605469 28.4375 L 22.605469 29.167969 C 22.605469 29.570312 22.929688 29.894531 23.332031 29.894531 L 25.519531 29.894531 C 25.925781 29.894531 26.25 29.570312 26.25 29.167969 L 26.25 28.4375 C 26.25 28.035156 25.925781 27.707031 25.519531 27.707031 Z M 27.707031 27.707031 C 27.304688 27.707031 26.980469 28.035156 26.980469 28.4375 L 26.980469 29.167969 C 26.980469 29.570312 27.304688 29.894531 27.707031 29.894531 L 29.894531 29.894531 C 30.300781 29.894531 30.625 29.570312 30.625 29.167969 L 30.625 28.4375 C 30.625 28.035156 30.300781 27.707031 29.894531 27.707031 Z M 27.707031 27.707031 "/>
</g>
</svg>
