<?xml version="1.0" encoding="UTF-8"?>
<svg xmlns="http://www.w3.org/2000/svg" xmlns:xlink="http://www.w3.org/1999/xlink" width="35pt" height="35pt" viewBox="0 0 35 35" version="1.1">
<g id="surface1">
<path style="fill:none;stroke-width:2;stroke-linecap:round;stroke-linejoin:round;stroke:rgb(0%,0%,0%);stroke-opacity:1;stroke-miterlimit:10;" d="M 18 16 L 26.1 7.9 C 23.8 4.9 20.1 3 16 3 C 8.8 3 3 8.8 3 16 C 3 23.2 8.8 29 16 29 C 20.1 29 23.8 27.1 26.1 24.1 Z M 18 16 " transform="matrix(1.09375,0,0,1.09375,0,0)"/>
<path style="fill:none;stroke-width:2;stroke-linecap:round;stroke-linejoin:round;stroke:rgb(0%,0%,0%);stroke-opacity:1;stroke-miterlimit:10;" d="M 16 11 C 16 12.103571 15.103571 13 14 13 C 12.896429 13 12 12.103571 12 11 C 12 9.896429 12.896429 9 14 9 C 15.103571 9 16 9.896429 16 11 Z M 16 11 " transform="matrix(1.09375,0,0,1.09375,0,0)"/>
</g>
</svg>
