<?xml version="1.0" encoding="UTF-8"?>
<svg xmlns="http://www.w3.org/2000/svg" xmlns:xlink="http://www.w3.org/1999/xlink" width="35pt" height="35pt" viewBox="0 0 35 35" version="1.1">
<g id="surface1">
<path style=" stroke:none;fill-rule:nonzero;fill:rgb(0%,0%,0%);fill-opacity:1;" d="M 32.8125 0 L 2.1875 0 C 0.980469 0 0 0.980469 0 2.1875 L 0 25.519531 C 0 26.730469 0.980469 27.707031 2.1875 27.707031 L 11.667969 27.707031 L 11.667969 30.828125 L 9.976562 31.390625 C 9.679688 31.492188 9.476562 31.769531 9.480469 32.082031 L 9.480469 33.542969 L 8.019531 33.542969 L 8.019531 35 L 20.417969 35 L 20.417969 33.542969 L 10.9375 33.542969 L 10.9375 32.609375 L 12.511719 32.082031 L 20.417969 32.082031 L 20.417969 30.625 L 13.125 30.625 L 13.125 27.707031 L 20.417969 27.707031 L 20.417969 26.25 L 2.1875 26.25 C 1.785156 26.25 1.457031 25.921875 1.457031 25.519531 L 1.457031 21.144531 L 20.417969 21.144531 L 20.417969 19.6875 L 1.457031 19.6875 L 1.457031 2.1875 C 1.457031 1.785156 1.785156 1.457031 2.1875 1.457031 L 32.8125 1.457031 C 33.214844 1.457031 33.542969 1.785156 33.542969 2.1875 L 33.542969 13.125 L 35 13.125 L 35 2.1875 C 35 0.980469 34.019531 0 32.8125 0 Z M 32.8125 0 "/>
<path style=" stroke:none;fill-rule:nonzero;fill:rgb(0%,0%,0%);fill-opacity:1;" d="M 33.542969 14.582031 L 23.332031 14.582031 C 22.527344 14.582031 21.875 15.234375 21.875 16.042969 L 21.875 33.542969 C 21.875 34.347656 22.527344 35 23.332031 35 L 33.542969 35 C 34.347656 35 35 34.347656 35 33.542969 L 35 16.042969 C 35 15.234375 34.347656 14.582031 33.542969 14.582031 Z M 33.542969 33.542969 L 23.332031 33.542969 L 23.332031 31.355469 L 33.542969 31.355469 Z M 33.542969 29.894531 L 23.332031 29.894531 L 23.332031 19.6875 L 33.542969 19.6875 Z M 33.542969 18.230469 L 23.332031 18.230469 L 23.332031 16.042969 L 33.542969 16.042969 Z M 33.542969 18.230469 "/>
</g>
</svg>
