<?xml version="1.0" encoding="UTF-8"?>
<svg xmlns="http://www.w3.org/2000/svg" xmlns:xlink="http://www.w3.org/1999/xlink" width="22pt" height="22pt" viewBox="0 0 22 22" version="1.1">
<g id="surface1">
<path style=" stroke:none;fill-rule:nonzero;fill:rgb(0%,0%,0%);fill-opacity:1;" d="M 20.625 0 L 1.375 0 C 0.617188 0 0 0.617188 0 1.375 L 0 16.042969 C 0 16.800781 0.617188 17.417969 1.375 17.417969 L 7.332031 17.417969 L 7.332031 19.378906 L 6.269531 19.730469 C 6.082031 19.792969 5.957031 19.96875 5.957031 20.167969 L 5.957031 21.082031 L 5.042969 21.082031 L 5.042969 22 L 12.832031 22 L 12.832031 21.082031 L 6.875 21.082031 L 6.875 20.496094 L 7.863281 20.167969 L 12.832031 20.167969 L 12.832031 19.25 L 8.25 19.25 L 8.25 17.417969 L 12.832031 17.417969 L 12.832031 16.5 L 1.375 16.5 C 1.121094 16.5 0.917969 16.292969 0.917969 16.042969 L 0.917969 13.292969 L 12.832031 13.292969 L 12.832031 12.375 L 0.917969 12.375 L 0.917969 1.375 C 0.917969 1.121094 1.121094 0.917969 1.375 0.917969 L 20.625 0.917969 C 20.878906 0.917969 21.082031 1.121094 21.082031 1.375 L 21.082031 8.25 L 22 8.25 L 22 1.375 C 22 0.617188 21.382812 0 20.625 0 Z M 20.625 0 "/>
<path style=" stroke:none;fill-rule:nonzero;fill:rgb(0%,0%,0%);fill-opacity:1;" d="M 21.082031 9.167969 L 14.667969 9.167969 C 14.160156 9.167969 13.75 9.578125 13.75 10.082031 L 13.75 21.082031 C 13.75 21.589844 14.160156 22 14.667969 22 L 21.082031 22 C 21.589844 22 22 21.589844 22 21.082031 L 22 10.082031 C 22 9.578125 21.589844 9.167969 21.082031 9.167969 Z M 21.082031 21.082031 L 14.667969 21.082031 L 14.667969 19.707031 L 21.082031 19.707031 Z M 21.082031 18.792969 L 14.667969 18.792969 L 14.667969 12.375 L 21.082031 12.375 Z M 21.082031 11.457031 L 14.667969 11.457031 L 14.667969 10.082031 L 21.082031 10.082031 Z M 21.082031 11.457031 "/>
</g>
</svg>
